<svg width="64" height="64" viewBox="0 0 64 64" fill="none" xmlns="http://www.w3.org/2000/svg">
  <!-- 3D Magical spellbook background with enhanced gradients -->
  <defs>
    <!-- 3D Background gradient -->
    <radialGradient id="magicalGradient3D" cx="0.3" cy="0.3" r="1.2">
      <stop offset="0%" stop-color="#2C1810"/>
      <stop offset="30%" stop-color="#1A1B2F"/>
      <stop offset="60%" stop-color="#6E4B9E" stop-opacity="0.4"/>
      <stop offset="100%" stop-color="#0F0F1A"/>
    </radialGradient>
    
    <!-- Golden star gradient -->
    <radialGradient id="starGradient" cx="0.3" cy="0.3" r="0.8">
      <stop offset="0%" stop-color="#FFD700"/>
      <stop offset="40%" stop-color="#F1C40F"/>
      <stop offset="80%" stop-color="#E67E22"/>
      <stop offset="100%" stop-color="#D35400"/>
    </radialGradient>
    
    <!-- Purple energy gradient -->
    <radialGradient id="energyGradient" cx="0.5" cy="0.5" r="0.6">
      <stop offset="0%" stop-color="#E8B4FF"/>
      <stop offset="50%" stop-color="#9B59B6"/>
      <stop offset="100%" stop-color="#663399"/>
    </radialGradient>
    
    <!-- Glow filter -->
    <filter id="magicalGlow" x="-50%" y="-50%" width="200%" height="200%">
      <feGaussianBlur stdDeviation="2" result="coloredBlur"/>
      <feMerge>
        <feMergeNode in="coloredBlur"/>
        <feMergeNode in="SourceGraphic"/>
      </feMerge>
    </filter>
  </defs>
  
  <!-- Simplified 3D Background shape -->
  <rect x="0" y="0" width="64" height="64" rx="16" ry="16" fill="url(#magicalGradient3D)"/>
  
  <!-- Shadow effect -->
  <rect x="2" y="2" width="60" height="60" rx="14" ry="14" fill="#0F0F1A" opacity="0.6"/>
  
  <!-- Central mystical star with 3D effect -->
  <g transform="translate(16, 16)">
    <!-- Star shadow -->
    <path d="M17 5L19 13L27 14L21 20L23 28L17 25L11 28L13 20L7 14L15 13L17 5Z" 
          fill="#B8860B" opacity="0.6"/>
    
    <!-- Main golden star -->
    <path d="M16 4L18 12L26 13L20 19L22 27L16 24L10 27L12 19L6 13L14 12L16 4Z" 
          fill="url(#starGradient)" filter="url(#magicalGlow)"/>
    
    <!-- Star highlight -->
    <path d="M16 4L17 9L21 10L18 13L19 18L16 16L13 18L14 13L11 10L15 9L16 4Z" 
          fill="#FFFFFF" opacity="0.4"/>
    
    <!-- Inner mystical circle with 3D effect -->
    <circle cx="17" cy="17" r="4" fill="#0F0F1A" opacity="0.7"/>
    <circle cx="16" cy="16" r="3" fill="url(#energyGradient)" opacity="0.9"/>
    <circle cx="15.5" cy="15" r="1.5" fill="#E8B4FF" opacity="0.6"/>
  </g>
  
  <!-- Magical sparkles around the edges -->
  <circle cx="10" cy="10" r="0.5" fill="#FFD700" opacity="0.8">
    <animate attributeName="opacity" values="0.8;0.3;0.8" dur="3s" repeatCount="indefinite"/>
  </circle>
  <circle cx="54" cy="12" r="0.8" fill="#9B59B6" opacity="0.7">
    <animate attributeName="opacity" values="0.7;0.2;0.7" dur="2s" repeatCount="indefinite"/>
  </circle>
  <circle cx="12" cy="52" r="0.5" fill="#F1C40F" opacity="0.6">
    <animate attributeName="opacity" values="0.6;0.1;0.6" dur="4s" repeatCount="indefinite"/>
  </circle>
  <circle cx="52" cy="54" r="0.6" fill="#E8B4FF" opacity="0.8">
    <animate attributeName="opacity" values="0.8;0.2;0.8" dur="2.5s" repeatCount="indefinite"/>
  </circle>
</svg>
