<svg width="24" height="24" viewBox="0 0 24 24" fill="none" xmlns="http://www.w3.org/2000/svg">
  <path d="M3 3h7v7H3V3zm1 1v5h5V4H4zM3 14h7v7H3v-7zm1 1v5h5v-5H4zM14 3h7v7h-7V3zm1 1v5h5V4h-5z" fill="currentColor"/>
  <path d="M5 5h3v3H5V5zM5 16h3v3H5v-3zM16 5h3v3h-3V5z" fill="currentColor"/>
  <path d="M14 12h2v2h-2v-2zM16 14h2v2h-2v-2zM18 12h2v2h-2v-2zM14 16h2v2h-2v-2zM16 18h2v2h-2v-2zM18 16h2v2h-2v-2zM14 20h2v2h-2v-2zM18 20h2v2h-2v-2zM20 14h2v2h-2v-2zM20 18h2v2h-2v-2z" fill="currentColor"/>
</svg>
